<svg xmlns="http://www.w3.org/2000/svg" version="1.1" xmlns:xlink="http://www.w3.org/1999/xlink" xmlns:svgjs="http://svgjs.com/svgjs" width="1920" height="1080" preserveAspectRatio="none" viewBox="0 0 1920 1080"><g mask="url(&quot;#SvgjsMask1027&quot;)" fill="none"><rect width="1920" height="1080" x="0" y="0" fill="rgba(44, 48, 46, 1)"></rect><path d="M193.58 0C239.33 10.72 235.77 63.28 270 63.28C296.99 63.28 281.07 8.19 316.02 0C416.07 -23.45 428.01 0 540 0C675 0 675 0 810 0C945 0 945 0 1080 0C1215 0 1215 0 1350 0C1485 0 1485 0 1620 0C1755 0 1755 0 1890 0C2025 0 2025 0 2160 0C2160 0 2160 0 2160 0C2160 135 2160 135 2160 270C2160 405 2160 405 2160 540C2160 675 2160 675 2160 810C2160 945 2227.5 1012.5 2160 1080C2092.5 1147.5 2025 1080 1890 1080C1794.38 1080 1774.18 1116 1698.75 1080C1639.18 1051.57 1655.8 951.14 1620 951.14C1586.27 951.14 1614.25 1053.95 1559.68 1080C1479.25 1118.38 1454.84 1080 1350 1080C1215 1080 1215 1080 1080 1080C945 1080 945 1080 810 1080C675 1080 675 1080 540 1080C405 1080 405 1080 270 1080C135 1080 67.5 1147.5 0 1080C-67.5 1012.5 0 945 0 810C0 675 0 675 0 540C0 405 0 405 0 270C0 135 -56.37 78.63 0 0C40.42 -56.37 104.33 -20.92 193.58 0" stroke="rgba(255, 111, 89, 0.32)" stroke-width="2"></path><path d="M1080 469.73C972.67 469.73 863.26 469.64 856.96 540C848.02 639.78 954.96 673.88 1049.52 810C1066.48 834.42 1052.9 857.64 1080 861.08C1203.14 876.7 1217.71 866.76 1350 848.12C1398.99 841.22 1442.57 837.65 1442.57 810C1442.57 774.81 1392.85 769.46 1350 722.43C1269.86 634.46 1282.52 620.42 1196.59 540C1147.52 494.07 1142.48 469.73 1080 469.73" stroke="rgba(255, 111, 89, 0.32)" stroke-width="2"></path><path d="M1620 531C1610.09 531 1600 533.47 1600 540C1600 548.77 1610.28 561.6 1620 561.6C1629.28 561.6 1638 548.92 1638 540C1638 533.62 1629.09 531 1620 531" stroke="rgba(255, 111, 89, 0.32)" stroke-width="2"></path><path d="M270 804.26C253.56 804.26 236.25 803.18 236.25 810C236.25 818.32 256.34 834.55 270 834.55C278.84 834.55 281.25 820.32 281.25 810C281.25 805.17 276.06 804.26 270 804.26" stroke="rgba(255, 111, 89, 0.32)" stroke-width="2"></path><path d="M66.23 0C174.2 67.48 178.73 168.75 270 168.75C341.98 168.75 313.59 49.46 392.73 0C448.59 -34.91 466.37 0 540 0C675 0 675 0 810 0C945 0 945 0 1080 0C1215 0 1215 0 1350 0C1485 0 1485 0 1620 0C1755 0 1755 0 1890 0C1973.86 0 1990.56 -33.59 2057.73 0C2125.56 33.91 2131.55 59.88 2160 135C2182.68 194.88 2160 202.5 2160 270C2160 405 2160 405 2160 540C2160 675 2160 675 2160 810C2160 945 2227.5 1012.5 2160 1080C2092.5 1147.5 2025 1080 1890 1080C1841.25 1080 1822.66 1112.17 1792.5 1080C1696.1 977.17 1620.33 936.75 1636.88 810C1655.58 666.75 1867.76 650.5 1863 540C1859.32 454.75 1742.74 418.5 1620 418.5C1486.24 418.5 1480.77 549.99 1350 540C1210.77 529.37 1223.6 437.57 1080 377.26C953.6 324.17 909.39 270.53 810 313.2C719.87 351.9 700.96 435.61 700.96 540C700.96 604.6 758.36 593.01 810 651.18C878.2 728.01 882.52 725.53 940.65 810C1017.52 921.69 981.63 1015.27 1080 1043.51C1186.3 1074.03 1230 916.79 1350 927.53C1433.94 935.04 1487.87 1034.37 1487.87 1080C1487.87 1110.6 1418.93 1080 1350 1080C1215 1080 1215 1080 1080 1080C945 1080 945 1080 810 1080C675 1080 675 1080 540 1080C447.19 1080 354.38 1127.19 354.38 1080C354.38 999.9 445.6 951.29 540 825.43C546.85 816.29 556.88 817.84 556.88 810C556.88 801.94 550.39 799.05 540 793.64C406.95 724.37 412.23 691.89 270 660.64C142.23 632.57 90.04 715.23 0 675C-44.96 654.91 0 607.5 0 540C0 405 0 405 0 270C0 135 -26.59 108.41 0 0C6.52 -26.59 39.2 -16.89 66.23 0" stroke="rgba(255, 111, 89, 0.32)" stroke-width="2"></path><path d="M0 1012.5C23.26 1012.5 77.14 1060.74 77.14 1080C77.14 1094.49 20.57 1098 0 1080C-18 1064.25 -15.31 1012.5 0 1012.5" stroke="rgba(255, 111, 89, 0.32)" stroke-width="2"></path><path d="M282.86 270C307.28 125.79 363.61 111.11 469.43 0C492.18 -23.89 504.72 0 540 0C675 0 675 0 810 0C853.67 0 897.35 -18.87 897.35 0C897.35 27.53 850.82 43.96 810 92.81C738 178.96 724.05 172.01 671.71 270C604.62 395.61 625.95 407.24 571.15 540C560.09 566.79 564.69 589.09 540 589.09C468.11 589.09 425.77 599.28 378 540C297.2 439.74 261.56 395.79 282.86 270" stroke="rgba(255, 111, 89, 0.32)" stroke-width="2"></path><path d="M1036.8 270C1036.8 254.57 1057.71 249.22 1080 230C1214.31 114.22 1215 115 1350 0C1350 0 1350 0 1350 0C1485 0 1485 0 1620 0C1755 0 1755 0 1890 0C1922.72 0 1955.45 -18.67 1955.45 0C1955.45 36.71 1934.46 65.6 1890 110.77C1801.57 200.6 1793.01 195.28 1689.68 270C1658.01 292.9 1657.6 295.77 1620 306C1487.76 341.96 1483.76 367.62 1350 362.37C1213.76 357.02 1214.7 324.52 1080 284.79C1058.1 278.33 1036.8 281.97 1036.8 270" stroke="rgba(255, 111, 89, 0.32)" stroke-width="2"></path><path d="M2088 540C2088 410.51 2141.69 270 2160 270C2177.69 270 2160 405 2160 540C2160 596.84 2176.49 653.68 2160 653.68C2140.49 653.68 2088 602.35 2088 540" stroke="rgba(255, 111, 89, 0.32)" stroke-width="2"></path><path d="M767.81 810C767.81 792.4 791.06 783.53 810 783.53C823.04 783.53 831.77 794.86 831.77 810C831.77 838.77 824.92 871.36 810 871.36C792.94 871.36 767.81 836.31 767.81 810" stroke="rgba(255, 111, 89, 0.32)" stroke-width="2"></path><path d="M1847.81 810C1848.17 779.04 1864.68 760 1890 760C1927.96 760 1972.92 768.46 1974.38 810C1978.54 928.46 1941.81 950.22 1901.25 1080C1899.62 1085.22 1895.63 1080 1890 1080C1888.13 1080 1886.54 1081.83 1886.25 1080C1865.44 946.83 1846.3 939.04 1847.81 810" stroke="rgba(255, 111, 89, 0.32)" stroke-width="2"></path><path d="M495 1080C495 1060.58 512.51 1018.29 540 1018.29C578.21 1018.29 626.4 1062.99 626.4 1080C626.4 1093.84 583.2 1080 540 1080C517.5 1080 495 1091.44 495 1080" stroke="rgba(255, 111, 89, 0.32)" stroke-width="2"></path><path d="M1205.58 1080C1205.58 1060.7 1284.58 1006.94 1350 1006.94C1389.82 1006.94 1416.06 1058.13 1416.06 1080C1416.06 1094.66 1383.03 1080 1350 1080C1277.79 1080 1205.58 1097.23 1205.58 1080" stroke="rgba(255, 111, 89, 0.32)" stroke-width="2"></path></g><defs><mask id="SvgjsMask1027"><rect width="1920" height="1080" fill="#ffffff"></rect></mask></defs></svg>